PathFileType	4	(X/Y/Z)	C:/Users/beibeiliu/ov580/test_trc/User2\sequence.31_training_dense_right.trc
DataRate	CameraRate	NumFrames	NumMarkers	Units	OrigDataRate	OrigDataStartFrame	OrigNumFrames
120	120	15	19	mm	120	219	349
Frame#	Time	ThumbCMC			ThumbMCP			ThumbIP			ThumbTip			IndexMCP			IndexPIP			IndexTip			MiddleMCP			MiddlePIP			MiddleTip			RingMCP			RingPIP			RingTip			PinkyMCP			PinkyPIP			PinkyTip			BackHand1			BackHand2			BackHand3	
		X0	Y0	Z0	X1	Y1	Z1	X2	Y2	Z2	X3	Y3	Z3	X4	Y4	Z4	X5	Y5	Z5	X6	Y6	Z6	X7	Y7	Z7	X8	Y8	Z8	X9	Y9	Z9	X10	Y10	Z10	X11	Y11	Z11	X12	Y12	Z12	X13	Y13	Z13	X14	Y14	Z14	X15	Y15	Z15	X16	Y16	Z16	X17	Y17	Z17	X18	Y18	Z18	
218	1.81667	40.2935	78.2102	102.658	17.727	99.2997	78.5862	2.69994	124.174	55.3993	3.28107	138.633	33.3507	62.4787	157.852	85.8868	47.5202	178.257	62.7801	26.8835	167.245	35.3262	81.1088	159.537	65.9484	64.0773	177.552	35.5014	33.0162	162.446	15.4034	77.1902	142.818	35.221	54.9884	139.261	15.2988	33.7935	109.869	24.7434	86.644	122.123	26.37	57.8885	117.526	9.19246	39.7063	95.6152	31.9479	106.733	94.0087	76.9944	109.158	64.4984	89.5892	86.3576	88.2939	105.78	
219	1.825	40.2974	77.2231	103.026	15.2487	99.5644	82.2336	2.25743	125.951	60.1924	3.71027	141.005	37.5365	65.4244	156.405	88.5668	50.9548	179.484	66.2051	29.8608	172.754	43.0519	83.6476	161.909	70.5435	67.389	180.854	44.8296	36.8005	170.063	23.2203	80.7343	145.145	38.5712	54.7304	144.188	22.0714	33.0563	114.95	28.396	85.7305	126.631	28.1119	58.1284	123.227	15.6924	40.8636	99.6655	31.2574	105.834	95.5205	77.3983	107.185	64.7395	89.9947	82.6811	85.159	109.757	
220	1.83333	37.5387	78.4089	106.829	17.7113	101.746	82.605	0.430096	125.246	62.608	5.15296	144.601	39.7296	62.6257	160.525	95.2305	48.3241	182.249	72.5955	26.1989	175.116	48.6088	85.3089	162.576	73.9399	64.5627	184.485	49.9583	39.4129	171.393	26.1496	82.7081	145.692	47.4292	56.6781	147.142	24.1527	34.3209	119.17	30.2326	86.0243	127.336	32.126	55.3355	122.437	15.9136	39.7938	103.326	33.5704	106.464	96.2433	78.4019	105.776	62.2522	91.1953	82.6962	90.3917	110.063	
221	1.84167	37.6906	79.9203	105.793	14.6833	99.9546	84.5732	1.7943	123.76	65.0568	4.4965	145.728	42.1149	65.3095	160.238	95.868	53.2432	181.478	77.293	27.4691	177.965	53.3518	85.7008	160.141	77.3826	64.4832	185.851	54.818	38.7707	173.931	30.9784	83.7464	145.965	48.6923	56.3327	149.291	26.3562	34.1606	124.002	32.1061	90.2162	126.875	30.5215	59.2975	128.244	19.6389	41.6441	103.38	29.3492	106.463	94.806	82.3225	104.999	62.4986	92.6103	84.1996	86.7489	112.657	
222	1.85	37.9183	80.4135	105.109	17.8171	98.6286	85.3981	0.409965	128.403	66.2437	1.1662	144.799	44.9975	64.1123	159.982	97.9374	52.387	182.226	77.1146	29.7807	178.454	55.9675	84.9402	159.818	81.8441	66.4912	186.944	58.0639	39.8064	177.987	35.6513	82.1966	150.813	50.049	58.9281	152.814	29.6597	34.8484	123.532	31.7112	88.2626	131.117	30.9635	57.1889	129.386	20.0988	40.166	109.626	31.8147	107.429	95.5494	80.9305	105.932	65.7557	90.9583	81.3087	89.0501	113.236	
223	1.85833	40.1055	78.197	103.687	17.0554	102.596	84.8946	3.21503	123.108	67.3528	3.10159	148.709	44.3704	63.1929	157.801	100.586	49.9651	183.087	83.5673	28.9778	176.23	54.4772	83.9586	163.225	83.0396	67.6136	186.609	57.5265	41.5635	178.015	36.5307	83.593	152.492	49.6847	57.4491	154.923	32.2882	35.2919	125.39	31.2272	90.9917	128.462	37.0729	57.7639	131.872	21.3368	40.936	105.707	30.8118	105.344	96.3064	84.4287	107.47	65.6831	92.9634	82.9259	85.1838	114.676	
224	1.86667	37.8395	76.8599	105.877	19.2706	101.009	83.8156	3.70715	124.092	66.3288	1.18216	145.002	45.7995	63.445	157.49	99.9813	50.912	180.934	82.4279	27.3767	176.652	55.5159	83.8553	161.433	85.6753	69.1997	186.588	58.0254	40.3889	178.897	37.007	86.1515	148.174	53.6061	59.021	155.912	31.3342	35.7222	127.577	33.162	90.0862	131.572	36.1078	59.5187	134.279	22.0753	41.0621	111.023	28.6532	105.529	98.4399	81.5491	106.151	64.8456	89.8247	83.8835	84.5727	113.048	
225	1.875	37.3705	76.735	104.149	16.2773	96.6406	83.5011	2.68973	124.125	65.2145	1.80742	143.781	44.8801	65.0457	155.53	99.0964	48.77	181.996	83.2558	31.879	177.252	54.6209	83.5761	161.013	84.2125	67.1842	186.756	62.9653	42.4663	180.121	37.4494	84.6714	151.812	51.6454	60.1421	157.047	35.3255	39.3303	128.608	27.0926	89.0343	133.635	37.7663	63.1157	132.497	16.9672	40.5883	107.798	28.2994	101.652	98.3781	83.0707	107.946	64.0195	88.4265	82.0901	82.669	113.988	
226	1.88333	39.4902	71.266	101.113	15.375	98.5329	80.7173	1.21272	120.565	63.4025	1.33438	144.201	42.6315	61.7032	151.841	100.114	53.1705	179.237	79.732	34.6961	178.247	53.1622	85.4991	160.787	80.9973	67.7389	186.264	61.5752	43.7614	178.164	33.8629	83.8842	151.599	52.2214	63.7506	156.603	32.5608	40.5602	130.113	27.6418	92.633	128.976	37.4051	64.2338	133.363	19.2841	42.954	110.383	23.6405	106.627	97.6064	81.1813	105.737	61.4311	90.8602	80.0038	82.849	111.206	
227	1.89167	40.3839	70.7949	98.9622	14.9836	94.576	78.5448	4.50102	120.726	58.5595	3.95458	137.574	40.378	65.1327	154.569	93.4714	52.1338	179.435	74.3228	34.2764	176.932	48.7483	86.8588	158.93	78.7926	70.5665	184.522	58.4645	46.4533	177.649	30.5851	85.6164	149.716	50.0524	63.4864	155.562	30.0101	41.9425	124.377	22.9565	92.8549	129.108	34.1361	64	130.42	15.5365	46.2675	105.49	20.4589	105.73	95.2953	80.0069	107.356	59.9521	90.4076	83.4996	79.6765	108.639	
228	1.9	36.588	75.0619	97.5745	15.5738	92.837	76.1841	6.47081	119.346	54.3519	5.87752	138.342	33.7844	65.4412	150.95	89.783	55.9365	176.973	73.733	32.0072	177.588	44.1231	87.6746	153.834	75.2329	73.5347	181.673	54.0351	45.399	177.088	27.1509	87.3714	144.337	49.2212	65.6119	150.521	22.4225	42.671	121.228	20.9337	97.3523	123.751	29.0237	70.6505	129.267	11.4912	45.7002	106.427	19.4418	106.099	91.5869	80.1008	107.44	60.3256	89.9125	80.4601	83.9484	109.527	
229	1.90833	38.6824	72.1099	94.6133	19.5329	89.9385	71.096	6.36156	116.413	49.6785	6.61027	132.948	28.2399	67.2478	151.353	85.815	58.0037	176.209	67.4169	37.2101	175.329	34.9462	85.9935	153.205	72.996	74.4885	180.859	44.2915	47.4979	172.835	19.6255	88.342	145.766	42.0272	66.5989	147.303	17.8194	47.4949	120.618	15.1535	97.935	123.58	22.8687	68.3263	124.87	9.22358	48.5781	101.423	16.5705	108.74	93.6394	73.8102	109.044	57.4567	88.513	82.4978	82.353	107.036	
230	1.91667	44.4798	74.1587	88.1642	23.4605	92.0427	62.9327	9.48989	112.735	41.0621	13.8899	131.275	18.0224	68.5654	151.104	79.1261	61.6871	173.456	58.6873	40.7718	175.158	31.3969	91.742	151.155	62.5327	76.9998	178.876	36.7871	53.5343	172.913	12.185	90.6456	140.226	36.646	69.1029	141.984	9.86691	47.8252	113.112	12.9849	99.0507	119.981	18.1406	71.781	118.844	-0.120119	53.2631	100.118	8.72574	111.517	87.8917	69.8867	113.591	56.0891	83.4103	83.1292	81.3361	101.668	
231	1.925	41.5003	72.8717	84.629	21.808	90.5565	56.4906	7.68082	109.161	33.3594	15.226	124.81	8.47085	68.3923	150.491	69.8553	58.7038	174.347	44.7332	43.2763	170.684	15.7911	93.4682	149.266	50.8748	80.2057	174.421	23.753	59.189	168.057	-2.77877	92.3372	135.988	26.8652	73.4392	138.799	2.4679	53.1807	109.422	1.08789	104.821	112.232	10.7066	74.8442	112.212	-9.09537	52.3989	95.8803	1.34901	111.314	87.85	65.616	114.523	59.4251	80.0759	87.196	83.6177	94.0206	
232	1.93333	44.8842	68.6576	78.4314	25.3543	82.9844	48.7529	11.0735	104.897	21.4355	13.9381	117.495	-3.98561	69.8645	149.103	54.6134	61.0115	167.52	29.9629	46.1846	166.209	2.67192	93.8565	148.367	39.1762	84.5428	168.4	13.3361	59.3407	161.155	-19.7664	96.4361	130.824	13.5823	72.0195	129.708	-8.77538	52.0715	101.71	-5.38464	104.078	108.891	5.05667	76.4337	106.891	-16.0655	57.341	89.5515	-8.06478	112.973	87.9957	57.3235	115.55	54.3178	77.0605	83.2286	82.3822	91.539	
